<svg width="284" height="101" viewBox="0 0 284 101" fill="none" xmlns="http://www.w3.org/2000/svg">
<line y1="0.5" x2="283.237" y2="0.5" stroke="black"/>
<line y1="24.1022" x2="283.237" y2="24.1022" stroke="black"/>
<line y1="47.7044" x2="283.237" y2="47.7044" stroke="black"/>
<rect x="113.106" y="72.3064" width="28.2717" height="27.5742" stroke="black"/>
<rect x="141.378" y="72.3064" width="28.2717" height="27.5742" stroke="black"/>
<rect x="169.65" y="72.3064" width="28.2717" height="27.5742" stroke="black"/>
<rect x="197.921" y="72.3064" width="28.2717" height="27.5742" stroke="black"/>
<rect x="226.193" y="72.3064" width="28.2717" height="27.5742" stroke="black"/>
<rect x="254.465" y="72.3064" width="28.2717" height="27.5742" stroke="black"/>
<path d="M124.605 78.2173H130.692V80.5795H125.763V84.4862C127.058 84.7588 128.125 85.1676 128.943 85.7809C129.988 86.5532 130.646 87.6889 130.601 88.9154C130.556 90.1192 129.874 91.2322 128.784 92.1407C127.716 93.0266 126.217 93.7534 124.287 94.2758L123.673 92.0044C125.377 91.5502 126.558 90.9369 127.285 90.3236C128.012 89.7331 128.239 89.188 128.239 88.8245C128.262 88.4611 128.125 88.0977 127.535 87.6661C126.967 87.2346 125.922 86.8257 124.468 86.6667L123.424 85.4856V79.3984L124.605 78.2173Z" fill="black"/>
<path d="M157.828 77.8538C159.486 77.7176 160.69 78.4444 161.485 78.9668L160.213 80.9429C159.418 80.4205 159.009 80.1252 158.032 80.1933C157.056 80.2842 155.693 80.7385 154.966 82.7146C154.83 83.078 154.716 83.5095 154.648 83.9865C155.647 84.0547 156.67 84.1228 157.624 84.3499C158.736 84.5998 159.872 85.1222 160.576 86.167C161.258 87.2346 161.394 88.5065 161.19 89.7104C161.008 90.8915 160.485 92.0499 159.554 92.8903C158.646 93.7307 157.374 94.0941 156.147 93.8443C154.921 93.5944 153.808 92.7313 153.104 91.4139C151.695 88.7564 151.695 84.6906 152.763 81.8742C153.808 79.0577 156.147 78.0128 157.828 77.8538ZM154.489 86.3487C154.512 87.8933 154.739 89.4605 155.193 90.3236C155.602 91.1186 156.124 91.4366 156.624 91.5502C157.101 91.641 157.578 91.5275 157.987 91.164C158.373 90.7779 158.759 90.0738 158.873 89.3242C158.986 88.5747 158.85 87.8478 158.6 87.4617C158.35 87.0983 157.896 86.8257 157.101 86.6213C156.397 86.4623 155.466 86.3942 154.489 86.3487Z" fill="black"/>
<path d="M185.032 94.0033C182.148 94.0033 179.967 90.3918 179.967 86.1443C179.967 81.8969 182.148 78.2854 185.032 78.2854C187.917 78.2854 190.097 81.8969 190.097 86.1443C190.097 90.3918 187.917 94.0033 185.032 94.0033ZM185.032 91.7546C186.554 91.7546 187.712 89.188 187.712 86.1443C187.712 83.1007 186.554 80.534 185.032 80.534C183.51 80.534 182.352 83.1007 182.352 86.1443C182.352 89.188 183.51 91.7546 185.032 91.7546Z" fill="black"/>
<path d="M213.304 94.0033C210.419 94.0033 208.239 90.3918 208.239 86.1443C208.239 81.8969 210.419 78.2854 213.304 78.2854C216.189 78.2854 218.369 81.8969 218.369 86.1443C218.369 90.3918 216.189 94.0033 213.304 94.0033ZM213.304 91.7546C214.826 91.7546 215.984 89.188 215.984 86.1443C215.984 83.1007 214.826 80.534 213.304 80.534C211.782 80.534 210.624 83.1007 210.624 86.1443C210.624 89.188 211.782 91.7546 213.304 91.7546Z" fill="black"/>
<path d="M236.51 78.2173H243.007L243.892 80.1706L239.94 84.7134C240.712 84.9405 241.394 85.2358 241.962 85.6446C243.029 86.3942 243.711 87.5071 243.756 88.7337C243.779 89.9602 243.166 91.1413 242.121 92.0726C241.076 93.0038 239.577 93.7534 237.646 94.2758L237.033 92.0044C238.714 91.5502 239.872 90.9142 240.553 90.3236C241.212 89.7104 241.394 89.188 241.394 88.8018C241.394 88.393 241.189 87.9841 240.599 87.5753C240.008 87.1437 239.009 86.7576 237.623 86.6667L236.806 84.7134L240.417 80.5795H236.51V78.2173Z" fill="black"/>
<path d="M264.782 78.399H270.983L272.119 79.8981L268.167 93.8443L265.895 93.2083L269.438 80.7612H264.782V78.399Z" fill="black"/>
</svg>
