<svg width="152" height="190" viewBox="0 0 152 190" fill="none" xmlns="http://www.w3.org/2000/svg">
<mask id="path-1-inside-1_5338_69724" fill="white">
<path d="M0.000865065 0.000288355V7.32059C0.000865065 14.6136 0.0121983 14.6453 3.24301 16.0706C7.51585 17.9563 8.9501 21.9017 6.64341 25.4222C5.5808 27.0439 4.03582 28.0003 2.47737 28.0003C0.122501 28.0003 0.000865065 28.2898 0.000865065 33.8753C0.000865065 39.6078 0.074545 39.7643 3.01256 40.3519C9.30177 41.6099 9.27768 49.9366 2.97853 52.3148C0.214755 53.358 0 53.803 0 58.5003C0 63.1976 0.21468 63.6426 2.97853 64.6858C9.27988 67.0639 9.304 75.3906 3.01256 76.6487C0.0744695 77.2363 0.000865065 77.3927 0.000865065 83.1253C0.000865065 88.7108 0.122539 89.0003 2.47737 89.0003C4.03582 89.0003 5.5808 89.9567 6.64341 91.5784C8.9501 95.0989 7.51585 99.0443 3.24301 100.93C0.197131 102.274 0.000865065 102.668 0.000865065 107.473C0.000865065 112.374 0.135756 112.626 3.24105 113.543C7.77278 114.882 9.15252 118.977 6.34456 122.752C5.22034 124.264 3.3335 125.645 2.15119 125.821C0.267583 126.101 0.000865065 126.784 0.000865065 131.35C0.000865065 136.213 0.200029 136.637 2.97934 137.686C9.28072 140.064 9.30284 148.391 3.01337 149.649C0.0752769 150.236 0.0035756 150.393 0.0035756 156.125C0.0035756 161.711 0.125307 162 2.48014 162C4.03859 162 5.58357 162.957 6.64618 164.578C8.95286 168.099 7.51665 172.044 3.24382 173.93C0.0138751 175.355 0.0035756 175.387 0.0035756 182.68L0.00161479 190H4.50163C8.45324 190 9.00164 189.735 9.00164 187.828C9.00164 182.115 16.2733 179.99 19.9274 184.635C21.0674 186.084 22.0016 187.884 22.0016 188.635C22.0016 189.619 23.5015 190 27.3767 190C32.5533 190 32.7732 189.888 33.3532 186.989C34.628 180.615 43.5915 180.445 45.4568 186.76C46.3795 189.884 46.602 190 51.7067 190C55.5127 190 57.0016 189.616 57.0016 188.635C57.0016 186.009 61.0744 182 63.7438 182C67.0702 182 70.0016 184.648 70.0016 187.654C70.0016 189.854 70.3739 190 76.0016 190C81.4927 190 82.0016 189.815 82.0016 187.828C82.0016 182.115 89.2732 179.989 92.9274 184.635C94.0673 186.084 95.0016 187.884 95.0016 188.635C95.0016 189.619 96.5015 190 100.377 190C105.553 190 105.773 189.888 106.353 186.988C107.628 180.614 116.591 180.445 118.457 186.76C119.379 189.884 119.602 190 124.707 190C128.513 190 130.002 189.616 130.002 188.635C130.002 186.008 134.074 182 136.744 182C140.07 182 143 184.648 143 187.654C143 189.767 143.448 190 147.502 190H152V182.68C152 175.387 151.988 175.355 148.759 173.93C144.487 172.044 143.05 168.099 145.357 164.578C146.42 162.956 147.965 162 149.523 162C151.878 162 152 161.711 152 156.125C152 150.392 151.928 150.236 148.99 149.648C142.701 148.39 142.723 140.064 149.024 137.686C151.803 136.636 152.002 136.213 152.002 131.35C152.002 126.783 151.736 126.098 149.852 125.818C148.67 125.643 146.783 124.263 145.659 122.752C142.851 118.977 144.232 114.881 148.764 113.543C151.928 112.608 152.002 112.453 152.002 106.859C152.002 101.372 151.888 101.12 149.284 100.816C147.556 100.615 146.007 99.498 145.034 97.75C143.658 95.2804 143.658 94.7196 145.034 92.25C146.007 90.5019 147.556 89.3847 149.284 89.1836C151.893 88.8797 152.002 88.6346 152.002 83.0586C152.002 77.3999 151.924 77.2351 148.991 76.6484C142.701 75.3904 142.726 67.0636 149.025 64.6855C151.789 63.6423 152.003 63.1973 152.003 58.5C152.003 53.8027 151.789 53.3577 149.025 52.3145C142.723 49.9364 142.699 41.6096 148.991 40.3515C151.929 39.7639 152.002 39.6076 152.002 33.875C152.002 28.2895 151.881 28 149.526 28C147.968 28 146.422 27.0436 145.36 25.4218C143.053 21.9014 144.487 17.954 148.76 16.0684C151.99 14.6431 152.002 14.6114 152.002 7.31834V0H147.502C143.551 0 143.002 0.265345 143.002 2.17189C143.002 7.8854 135.729 10.0107 132.075 5.36525C130.935 3.9161 130.002 2.11603 130.002 1.36519C130.002 0.380999 128.503 0 124.627 0C119.451 0 119.231 0.109968 118.651 3.00973C117.376 9.38376 108.411 9.55297 106.545 3.2384C105.623 0.11447 105.4 0.000173013 100.295 0.000173013C96.4894 0.000173013 95.0024 0.38378 95.0024 1.36536C95.0024 3.99168 90.9277 8.00012 88.2583 8.00012C84.9319 8.00012 82.0025 5.35259 82.0025 2.34583C82.0025 0.14633 81.6302 0.000173013 76.0024 0.000173013C70.5114 0.000173013 70.0025 0.184957 70.0025 2.17201C70.0025 7.88552 62.7289 10.0109 59.0747 5.36537C57.9348 3.91622 57.0025 2.1162 57.0025 1.36536C57.0025 0.381172 55.5026 0.000173013 51.6274 0.000173013C46.4508 0.000173013 46.2309 0.112026 45.6509 3.01187C44.3761 9.38585 35.4107 9.55316 33.5454 3.23829C32.6227 0.114354 32.4 0 27.2954 0C23.4894 0 22.0025 0.383607 22.0025 1.36519C22.0025 3.99151 17.9278 8.00001 15.2583 8.00001C11.9319 8.00001 9.00245 5.35248 9.00245 2.34571C9.00245 0.233144 8.55647 0 4.50243 0L0.000865065 0.000288355ZM27.4774 3.00033C28.866 3.00033 30.0028 3.41629 30.0028 3.92411C30.0028 4.43193 31.1667 6.23194 32.5906 7.92411C34.7462 10.4859 35.904 11.0003 39.5027 11.0003C43.1015 11.0003 44.2573 10.4859 46.4129 7.92411C47.8368 6.23194 49.0028 4.43193 49.0028 3.92411C49.0028 3.41629 50.1376 3.00033 51.5262 3.00033C53.2708 3.00033 54.3334 3.74088 54.9637 5.3987C56.2263 8.71966 59.8189 11.0003 63.7899 11.0003C68.1977 11.0003 70.647 9.58987 72.5184 5.97097C74.5169 2.10633 77.4886 2.10633 79.4872 5.97097C81.3585 9.58987 83.8059 11.0003 88.2138 11.0003C92.1847 11.0003 95.7772 8.71966 97.0398 5.3987C97.6702 3.74088 98.7328 3.00033 100.477 3.00033C101.866 3.00033 103.003 3.41629 103.003 3.92411C103.003 4.43193 104.167 6.23194 105.591 7.92411C107.746 10.4859 108.904 11.0003 112.503 11.0003C116.102 11.0003 117.257 10.4859 119.413 7.92411C120.837 6.23194 122.003 4.43193 122.003 3.92411C122.003 3.41629 123.138 3.00033 124.526 3.00033C126.271 3.00033 127.333 3.74088 127.964 5.3987C129.226 8.71966 132.819 11.0003 136.79 11.0003C141.198 11.0003 143.647 9.58987 145.518 5.97097C147.708 1.73684 149.003 2.29571 149.003 7.47491C149.003 11.3659 148.636 12.1371 146.196 13.3987C139.467 16.8784 139.442 27.2574 146.155 30.2288C148.291 31.1741 149.003 32.1771 149.003 34.2444C149.003 35.9503 148.464 37.0003 147.591 37.0003C145.116 37.0003 141.003 42.8958 141.003 46.4417C141.003 50.0742 143.968 54.537 147.028 55.5081C149.682 56.3505 149.682 60.6502 147.028 61.4925C143.986 62.458 141.003 66.9183 141.003 70.5003C141.003 74.0823 143.986 78.5426 147.028 79.5081C150.092 80.4805 149.589 84.6443 146.196 86.3987C139.426 89.8997 139.569 100.659 146.427 103.783C149.625 105.241 150.011 109.546 147.028 110.492C143.986 111.458 141.003 115.918 141.003 119.5C141.003 123.082 143.986 127.543 147.028 128.508C149.682 129.35 149.682 133.65 147.028 134.492C143.968 135.464 141.003 139.926 141.003 143.559C141.003 147.105 145.116 153 147.591 153C148.464 153 149.003 154.05 149.003 155.756C149.003 157.824 148.291 158.826 146.155 159.772C139.398 162.763 139.572 173.66 146.426 176.783C148.64 177.792 149.003 178.591 149.003 182.479C149.003 187.702 147.712 188.275 145.516 184.03C143.645 180.411 141.198 179 136.79 179C132.819 179 129.226 181.281 127.964 184.602C127.333 186.26 126.271 187 124.526 187C123.137 187 122.003 186.462 122.003 185.805C122.003 185.148 120.793 183.348 119.315 181.805C114.721 177.009 105.437 178.899 103.493 185.026C102.651 187.68 98.3527 187.68 97.5104 185.026C96.5219 181.911 92.0722 179 88.3014 179C83.8072 179 81.3681 180.392 79.487 184.03C77.4884 187.894 74.5147 187.894 72.5162 184.03C70.6449 180.411 68.1975 179 63.7897 179C59.8187 179 56.2261 181.281 54.9635 184.602C53.8038 187.652 49.4349 187.938 48.5104 185.026C47.4783 181.774 43.0791 179 38.9557 179C35.9665 179 34.6397 179.641 32.5905 182.077C31.1666 183.769 30.0026 185.569 30.0026 186.076C30.0026 186.584 28.8658 187 27.4772 187C25.7326 187 24.6699 186.26 24.0396 184.602C22.777 181.281 19.1845 179 15.2135 179C10.8056 179 8.35838 180.411 6.48695 184.03C4.29857 188.261 3.00258 187.706 3.00258 182.535C3.00258 178.913 3.42724 177.853 5.25256 176.918C8.62095 175.193 10.9527 171.845 10.9791 168.701C11.0094 164.634 8.34512 160.125 5.48307 159.407C3.55646 158.923 3.00258 158.136 3.00258 155.891C3.00258 154.068 3.52322 153 4.4127 153C6.88719 153 11.0025 147.105 11.0025 143.559C11.0025 139.926 8.03509 135.464 4.97522 134.492C2.32135 133.65 2.32135 129.35 4.97522 128.508C8.01729 127.543 11.0025 123.082 11.0025 119.5C11.0025 115.918 8.01729 111.458 4.97522 110.492C1.99204 109.546 2.37814 105.241 5.57679 103.783C12.4345 100.659 12.5774 89.8997 5.80736 86.3987C2.4147 84.6443 1.91163 80.4805 4.97528 79.5081C8.01734 78.5426 11.0026 74.0823 11.0026 70.5003C11.0026 66.9183 8.01734 62.458 4.97528 61.4925C3.74304 61.1014 3.00264 59.9768 3.00264 58.5003C3.00264 57.0237 3.74304 55.8992 4.97528 55.5081C8.03515 54.537 11.0026 50.0742 11.0026 46.4417C11.0026 42.8958 6.88731 37.0003 4.41281 37.0003C3.52334 37.0003 3.00264 35.9304 3.00264 34.1077C3.00264 31.863 3.55652 31.0776 5.48313 30.594C8.34518 29.8757 11.0132 25.3662 10.9792 21.2991C10.9527 18.1555 8.62101 14.8073 5.25262 13.0823C3.4273 12.1476 3.00264 11.0873 3.00264 7.46517C3.00264 2.29477 4.29868 1.73914 6.48707 5.97097C8.35846 9.58987 10.8057 11.0003 15.2136 11.0003C19.1846 11.0003 22.7771 8.71966 24.0398 5.3987C24.67 3.74088 25.7328 3.00033 27.4774 3.00033Z"/>
</mask>
<path d="M0.000865065 0.000288355V7.32059C0.000865065 14.6136 0.0121983 14.6453 3.24301 16.0706C7.51585 17.9563 8.9501 21.9017 6.64341 25.4222C5.5808 27.0439 4.03582 28.0003 2.47737 28.0003C0.122501 28.0003 0.000865065 28.2898 0.000865065 33.8753C0.000865065 39.6078 0.074545 39.7643 3.01256 40.3519C9.30177 41.6099 9.27768 49.9366 2.97853 52.3148C0.214755 53.358 0 53.803 0 58.5003C0 63.1976 0.21468 63.6426 2.97853 64.6858C9.27988 67.0639 9.304 75.3906 3.01256 76.6487C0.0744695 77.2363 0.000865065 77.3927 0.000865065 83.1253C0.000865065 88.7108 0.122539 89.0003 2.47737 89.0003C4.03582 89.0003 5.5808 89.9567 6.64341 91.5784C8.9501 95.0989 7.51585 99.0443 3.24301 100.93C0.197131 102.274 0.000865065 102.668 0.000865065 107.473C0.000865065 112.374 0.135756 112.626 3.24105 113.543C7.77278 114.882 9.15252 118.977 6.34456 122.752C5.22034 124.264 3.3335 125.645 2.15119 125.821C0.267583 126.101 0.000865065 126.784 0.000865065 131.35C0.000865065 136.213 0.200029 136.637 2.97934 137.686C9.28072 140.064 9.30284 148.391 3.01337 149.649C0.0752769 150.236 0.0035756 150.393 0.0035756 156.125C0.0035756 161.711 0.125307 162 2.48014 162C4.03859 162 5.58357 162.957 6.64618 164.578C8.95286 168.099 7.51665 172.044 3.24382 173.93C0.0138751 175.355 0.0035756 175.387 0.0035756 182.68L0.00161479 190H4.50163C8.45324 190 9.00164 189.735 9.00164 187.828C9.00164 182.115 16.2733 179.99 19.9274 184.635C21.0674 186.084 22.0016 187.884 22.0016 188.635C22.0016 189.619 23.5015 190 27.3767 190C32.5533 190 32.7732 189.888 33.3532 186.989C34.628 180.615 43.5915 180.445 45.4568 186.76C46.3795 189.884 46.602 190 51.7067 190C55.5127 190 57.0016 189.616 57.0016 188.635C57.0016 186.009 61.0744 182 63.7438 182C67.0702 182 70.0016 184.648 70.0016 187.654C70.0016 189.854 70.3739 190 76.0016 190C81.4927 190 82.0016 189.815 82.0016 187.828C82.0016 182.115 89.2732 179.989 92.9274 184.635C94.0673 186.084 95.0016 187.884 95.0016 188.635C95.0016 189.619 96.5015 190 100.377 190C105.553 190 105.773 189.888 106.353 186.988C107.628 180.614 116.591 180.445 118.457 186.76C119.379 189.884 119.602 190 124.707 190C128.513 190 130.002 189.616 130.002 188.635C130.002 186.008 134.074 182 136.744 182C140.07 182 143 184.648 143 187.654C143 189.767 143.448 190 147.502 190H152V182.68C152 175.387 151.988 175.355 148.759 173.93C144.487 172.044 143.05 168.099 145.357 164.578C146.42 162.956 147.965 162 149.523 162C151.878 162 152 161.711 152 156.125C152 150.392 151.928 150.236 148.99 149.648C142.701 148.39 142.723 140.064 149.024 137.686C151.803 136.636 152.002 136.213 152.002 131.35C152.002 126.783 151.736 126.098 149.852 125.818C148.67 125.643 146.783 124.263 145.659 122.752C142.851 118.977 144.232 114.881 148.764 113.543C151.928 112.608 152.002 112.453 152.002 106.859C152.002 101.372 151.888 101.12 149.284 100.816C147.556 100.615 146.007 99.498 145.034 97.75C143.658 95.2804 143.658 94.7196 145.034 92.25C146.007 90.5019 147.556 89.3847 149.284 89.1836C151.893 88.8797 152.002 88.6346 152.002 83.0586C152.002 77.3999 151.924 77.2351 148.991 76.6484C142.701 75.3904 142.726 67.0636 149.025 64.6855C151.789 63.6423 152.003 63.1973 152.003 58.5C152.003 53.8027 151.789 53.3577 149.025 52.3145C142.723 49.9364 142.699 41.6096 148.991 40.3515C151.929 39.7639 152.002 39.6076 152.002 33.875C152.002 28.2895 151.881 28 149.526 28C147.968 28 146.422 27.0436 145.36 25.4218C143.053 21.9014 144.487 17.954 148.76 16.0684C151.99 14.6431 152.002 14.6114 152.002 7.31834V0H147.502C143.551 0 143.002 0.265345 143.002 2.17189C143.002 7.8854 135.729 10.0107 132.075 5.36525C130.935 3.9161 130.002 2.11603 130.002 1.36519C130.002 0.380999 128.503 0 124.627 0C119.451 0 119.231 0.109968 118.651 3.00973C117.376 9.38376 108.411 9.55297 106.545 3.2384C105.623 0.11447 105.4 0.000173013 100.295 0.000173013C96.4894 0.000173013 95.0024 0.38378 95.0024 1.36536C95.0024 3.99168 90.9277 8.00012 88.2583 8.00012C84.9319 8.00012 82.0025 5.35259 82.0025 2.34583C82.0025 0.14633 81.6302 0.000173013 76.0024 0.000173013C70.5114 0.000173013 70.0025 0.184957 70.0025 2.17201C70.0025 7.88552 62.7289 10.0109 59.0747 5.36537C57.9348 3.91622 57.0025 2.1162 57.0025 1.36536C57.0025 0.381172 55.5026 0.000173013 51.6274 0.000173013C46.4508 0.000173013 46.2309 0.112026 45.6509 3.01187C44.3761 9.38585 35.4107 9.55316 33.5454 3.23829C32.6227 0.114354 32.4 0 27.2954 0C23.4894 0 22.0025 0.383607 22.0025 1.36519C22.0025 3.99151 17.9278 8.00001 15.2583 8.00001C11.9319 8.00001 9.00245 5.35248 9.00245 2.34571C9.00245 0.233144 8.55647 0 4.50243 0L0.000865065 0.000288355ZM27.4774 3.00033C28.866 3.00033 30.0028 3.41629 30.0028 3.92411C30.0028 4.43193 31.1667 6.23194 32.5906 7.92411C34.7462 10.4859 35.904 11.0003 39.5027 11.0003C43.1015 11.0003 44.2573 10.4859 46.4129 7.92411C47.8368 6.23194 49.0028 4.43193 49.0028 3.92411C49.0028 3.41629 50.1376 3.00033 51.5262 3.00033C53.2708 3.00033 54.3334 3.74088 54.9637 5.3987C56.2263 8.71966 59.8189 11.0003 63.7899 11.0003C68.1977 11.0003 70.647 9.58987 72.5184 5.97097C74.5169 2.10633 77.4886 2.10633 79.4872 5.97097C81.3585 9.58987 83.8059 11.0003 88.2138 11.0003C92.1847 11.0003 95.7772 8.71966 97.0398 5.3987C97.6702 3.74088 98.7328 3.00033 100.477 3.00033C101.866 3.00033 103.003 3.41629 103.003 3.92411C103.003 4.43193 104.167 6.23194 105.591 7.92411C107.746 10.4859 108.904 11.0003 112.503 11.0003C116.102 11.0003 117.257 10.4859 119.413 7.92411C120.837 6.23194 122.003 4.43193 122.003 3.92411C122.003 3.41629 123.138 3.00033 124.526 3.00033C126.271 3.00033 127.333 3.74088 127.964 5.3987C129.226 8.71966 132.819 11.0003 136.79 11.0003C141.198 11.0003 143.647 9.58987 145.518 5.97097C147.708 1.73684 149.003 2.29571 149.003 7.47491C149.003 11.3659 148.636 12.1371 146.196 13.3987C139.467 16.8784 139.442 27.2574 146.155 30.2288C148.291 31.1741 149.003 32.1771 149.003 34.2444C149.003 35.9503 148.464 37.0003 147.591 37.0003C145.116 37.0003 141.003 42.8958 141.003 46.4417C141.003 50.0742 143.968 54.537 147.028 55.5081C149.682 56.3505 149.682 60.6502 147.028 61.4925C143.986 62.458 141.003 66.9183 141.003 70.5003C141.003 74.0823 143.986 78.5426 147.028 79.5081C150.092 80.4805 149.589 84.6443 146.196 86.3987C139.426 89.8997 139.569 100.659 146.427 103.783C149.625 105.241 150.011 109.546 147.028 110.492C143.986 111.458 141.003 115.918 141.003 119.5C141.003 123.082 143.986 127.543 147.028 128.508C149.682 129.35 149.682 133.65 147.028 134.492C143.968 135.464 141.003 139.926 141.003 143.559C141.003 147.105 145.116 153 147.591 153C148.464 153 149.003 154.05 149.003 155.756C149.003 157.824 148.291 158.826 146.155 159.772C139.398 162.763 139.572 173.66 146.426 176.783C148.64 177.792 149.003 178.591 149.003 182.479C149.003 187.702 147.712 188.275 145.516 184.03C143.645 180.411 141.198 179 136.79 179C132.819 179 129.226 181.281 127.964 184.602C127.333 186.26 126.271 187 124.526 187C123.137 187 122.003 186.462 122.003 185.805C122.003 185.148 120.793 183.348 119.315 181.805C114.721 177.009 105.437 178.899 103.493 185.026C102.651 187.68 98.3527 187.68 97.5104 185.026C96.5219 181.911 92.0722 179 88.3014 179C83.8072 179 81.3681 180.392 79.487 184.03C77.4884 187.894 74.5147 187.894 72.5162 184.03C70.6449 180.411 68.1975 179 63.7897 179C59.8187 179 56.2261 181.281 54.9635 184.602C53.8038 187.652 49.4349 187.938 48.5104 185.026C47.4783 181.774 43.0791 179 38.9557 179C35.9665 179 34.6397 179.641 32.5905 182.077C31.1666 183.769 30.0026 185.569 30.0026 186.076C30.0026 186.584 28.8658 187 27.4772 187C25.7326 187 24.6699 186.26 24.0396 184.602C22.777 181.281 19.1845 179 15.2135 179C10.8056 179 8.35838 180.411 6.48695 184.03C4.29857 188.261 3.00258 187.706 3.00258 182.535C3.00258 178.913 3.42724 177.853 5.25256 176.918C8.62095 175.193 10.9527 171.845 10.9791 168.701C11.0094 164.634 8.34512 160.125 5.48307 159.407C3.55646 158.923 3.00258 158.136 3.00258 155.891C3.00258 154.068 3.52322 153 4.4127 153C6.88719 153 11.0025 147.105 11.0025 143.559C11.0025 139.926 8.03509 135.464 4.97522 134.492C2.32135 133.65 2.32135 129.35 4.97522 128.508C8.01729 127.543 11.0025 123.082 11.0025 119.5C11.0025 115.918 8.01729 111.458 4.97522 110.492C1.99204 109.546 2.37814 105.241 5.57679 103.783C12.4345 100.659 12.5774 89.8997 5.80736 86.3987C2.4147 84.6443 1.91163 80.4805 4.97528 79.5081C8.01734 78.5426 11.0026 74.0823 11.0026 70.5003C11.0026 66.9183 8.01734 62.458 4.97528 61.4925C3.74304 61.1014 3.00264 59.9768 3.00264 58.5003C3.00264 57.0237 3.74304 55.8992 4.97528 55.5081C8.03515 54.537 11.0026 50.0742 11.0026 46.4417C11.0026 42.8958 6.88731 37.0003 4.41281 37.0003C3.52334 37.0003 3.00264 35.9304 3.00264 34.1077C3.00264 31.863 3.55652 31.0776 5.48313 30.594C8.34518 29.8757 11.0132 25.3662 10.9792 21.2991C10.9527 18.1555 8.62101 14.8073 5.25262 13.0823C3.4273 12.1476 3.00264 11.0873 3.00264 7.46517C3.00264 2.29477 4.29868 1.73914 6.48707 5.97097C8.35846 9.58987 10.8057 11.0003 15.2136 11.0003C19.1846 11.0003 22.7771 8.71966 24.0398 5.3987C24.67 3.74088 25.7328 3.00033 27.4774 3.00033Z" fill="#C27D64" stroke="white" stroke-width="0.5" mask="url(#path-1-inside-1_5338_69724)"/>
<path fill-rule="evenodd" clip-rule="evenodd" d="M26.3748 186.746C25.5696 186.551 24.75 185.652 23.9642 184.101C22.9875 182.174 21.544 180.781 19.5637 179.854C18.2268 179.229 17.5168 179.07 15.6104 178.97C11.2318 178.741 8.6435 180.061 6.59725 183.566C5.39436 185.626 4.54607 186.675 4.08242 186.675C3.46919 186.675 3.15792 184.876 3.25296 181.882C3.36053 178.493 3.55643 178.079 5.60171 176.908C7.51961 175.811 9.27027 173.992 10.2008 172.13C10.8701 170.791 10.979 170.302 10.979 168.637C10.979 164.184 8.70706 160.369 5.38027 159.235C3.68982 158.659 3.21847 157.933 3.21847 155.905C3.21847 154.077 3.65485 153.129 4.49679 153.129C6.58381 153.129 10.3099 148.297 10.9579 144.75C11.6335 141.053 9.01477 136.225 5.40756 134.519C3.82336 133.769 3.21847 132.935 3.21847 131.499C3.21847 130.101 3.70506 129.362 5.08316 128.668C7.02936 127.688 7.68951 127.143 8.86294 125.549C11.6447 121.77 11.7731 117.652 9.22464 113.948C8.1751 112.423 6.97228 111.357 5.29812 110.468C3.4517 109.487 2.80111 108.366 3.20571 106.864C3.58185 105.467 4.20527 104.784 6.12387 103.666C8.08346 102.525 9.44436 100.943 10.2509 98.8688C10.9642 97.035 11.0318 93.2889 10.3831 91.5458C9.64577 89.5646 8.28416 87.8684 6.45486 86.6523C3.62049 84.768 2.68511 83.1901 3.29495 81.3218C3.54786 80.5471 3.8449 80.2813 5.22116 79.5986C8.07283 78.1841 10.3445 75.1147 10.9663 71.836C11.6517 68.2217 9.03949 63.2699 5.58547 61.6359C3.81882 60.8002 3.21847 60.0051 3.21847 58.5012C3.21847 56.9972 3.81882 56.2021 5.58547 55.3663C9.05703 53.724 11.6898 48.7088 10.9455 45.1559C10.3157 42.1499 7.03357 37.468 5.28298 37.0785C3.9194 36.7751 3.79091 36.7028 3.5068 36.0792C3.13968 35.2735 3.13352 32.9262 3.49649 32.1297C3.78267 31.5016 4.03336 31.3391 5.98971 30.5134C7.54666 29.8563 8.81889 28.4732 9.92587 26.2341C10.8191 24.4274 10.8538 24.2583 10.8538 21.715C10.8538 19.4208 10.7732 18.908 10.2418 17.8211C9.51554 16.3359 7.22597 13.9582 5.83572 13.2454C3.68164 12.1411 3.21847 11.1302 3.21847 7.5329C3.21847 4.37061 3.63983 2.9822 4.46536 3.42401C4.74624 3.57433 5.50997 4.62213 6.16256 5.75244C8.24078 9.35198 10.1236 10.6713 13.7339 11.0579C18.2652 11.543 22.3419 9.38232 24.1666 5.52856C24.9508 3.87219 25.9113 3.1786 27.4224 3.17725C28.9745 3.17625 29.691 3.54142 30.1123 4.54956C31.0095 6.69686 34.2379 10.129 35.9088 10.7118C37.2105 11.1659 41.8289 11.1644 43.1336 10.7098C43.6767 10.5205 44.6779 9.84636 45.3585 9.21185C46.6718 7.98765 49.0305 4.81841 49.0305 4.27808C49.0305 3.69097 50.1144 3.17664 51.3517 3.17664C53.1722 3.17664 53.9078 3.6851 54.8919 5.6239C56.8631 9.50719 60.7208 11.523 65.2708 11.0472C68.7707 10.6813 70.6737 9.41452 72.5503 6.20123C74.9142 2.15378 77.102 2.21396 79.5547 6.39392C81.288 9.34788 82.9986 10.511 86.2952 10.9772C90.9588 11.6367 94.9343 9.77197 96.9198 5.99359C97.4154 5.05049 98.0432 4.07766 98.3149 3.83173C98.8974 3.30458 100.463 3.04828 101.692 3.27887C102.416 3.41455 102.66 3.63653 103.111 4.56909C103.931 6.2631 106.232 9.07369 107.528 9.96564C109.813 11.5377 115.262 11.5618 117.47 10.0096C118.761 9.10225 120.935 6.44921 121.781 4.74768C122.333 3.63888 122.564 3.4151 123.298 3.2774C124.614 3.03052 126.115 3.32128 126.788 3.95343C127.12 4.26557 127.664 5.11364 127.995 5.83807C129.701 9.5642 134.015 11.638 138.685 10.9775C142.047 10.5021 143.876 9.20704 145.65 6.04645C147.85 2.12817 148.785 2.54137 148.789 7.43237C148.792 11.2846 148.624 11.6394 146.007 13.3276C143.034 15.2455 141.69 17.2291 141.173 20.4611C140.537 24.4452 142.464 28.6374 145.6 30.0915C148.498 31.4352 149.548 33.4732 148.559 35.8391C148.275 36.5201 147.992 36.7493 147.16 36.9734C145.131 37.5196 142.505 40.7275 141.389 44.0222C140.641 46.2293 140.812 48.1404 141.971 50.5506C143.147 52.9939 144.295 54.2424 146.37 55.3327C148.782 56.6 149.423 57.9821 148.501 59.9247C148.193 60.5749 147.73 60.9662 146.686 61.4578C144.714 62.3874 143.066 64.1269 141.956 66.4505C141.112 68.219 141.03 68.5784 141.03 70.5307C141.03 72.5019 141.105 72.8229 141.973 74.5806C143.122 76.9045 144.721 78.6052 146.539 79.4377C148.372 80.277 148.999 81.0953 148.848 82.4509C148.675 83.9979 147.842 85.125 145.951 86.3708C143.902 87.7211 142.795 88.9389 141.944 90.7817C141.375 92.013 141.3 92.5014 141.291 95.0509C141.281 97.6506 141.344 98.0663 141.94 99.3367C142.761 101.088 144.143 102.64 145.64 103.492C147.197 104.378 148.158 105.281 148.571 106.246C149.364 108.1 148.79 109.466 146.826 110.396C145.05 111.237 143.786 112.365 142.643 114.132C141.423 116.015 140.792 118.355 140.971 120.328C141.256 123.475 143.795 127.163 146.583 128.482C149.753 129.982 149.7 132.945 146.474 134.573C143.102 136.275 140.649 140.559 140.976 144.172C141.142 145.999 142.406 148.729 143.97 150.64C144.989 151.885 145.623 152.326 147.914 153.381C148.618 153.705 148.945 154.7 148.816 156.119C148.657 157.865 148.179 158.477 146.032 159.691C143.743 160.984 143.042 161.682 142.09 163.616C141.015 165.8 140.824 169.032 141.628 171.442C142.342 173.581 143.724 175.355 145.402 176.286C146.147 176.699 147.175 177.435 147.686 177.921C148.479 178.676 148.643 179.022 148.8 180.278C148.901 181.087 148.915 182.634 148.832 183.714C148.531 187.619 147.61 187.63 145.543 183.754C144.584 181.955 143.076 180.469 141.428 179.696C140.17 179.106 139.738 179.04 137.15 179.044C134.74 179.047 134.038 179.142 132.844 179.621C130.843 180.423 129.044 182.124 127.996 184.203C127.05 186.083 126.39 186.655 124.946 186.848C123.735 187.011 122.129 186.382 122.129 185.746C122.129 185.158 120.726 183.084 119.418 181.739C114.943 177.138 106.343 178.54 103.614 184.315C102.747 186.15 101.926 186.8 100.475 186.8C99.0797 186.8 98.2278 186.17 97.4759 184.58C96.6417 182.817 94.5196 180.836 92.3986 179.842C90.8126 179.098 90.5401 179.051 87.833 179.049C85.3702 179.048 84.7699 179.131 83.6794 179.621C82.147 180.309 80.4774 181.987 79.2193 184.102C77.0244 187.791 74.7985 187.577 72.3403 183.439C70.3069 180.016 67.7675 178.743 63.4248 178.971C61.5139 179.071 60.8094 179.229 59.4591 179.861C57.4508 180.8 55.8729 182.334 54.9884 184.205C54.2318 185.805 53.1986 186.667 51.8133 186.853C50.3054 187.055 49.4519 186.448 48.3811 184.41C46.4613 180.757 42.5553 178.703 38.0248 178.965C36.49 179.054 35.8336 179.222 34.9135 179.761C33.573 180.547 31.3569 183.118 30.3319 185.076C29.4544 186.753 28.3428 187.222 26.3748 186.746Z" fill="white"/>
</svg>
