<svg width="135" height="141" viewBox="0 0 135 141" fill="none" xmlns="http://www.w3.org/2000/svg">
<path d="M85.5491 0.00686114C85.3175 0.141609 83.1053 1.48357 80.6328 2.98857L76.1366 5.72509L74.216 3.885C72.9003 2.62445 72.4376 2.41603 72.7475 3.22353C73.012 3.91266 72.7058 5.31963 72.0107 6.61003C70.9455 8.58802 70.7376 8.70325 70.0097 7.71843C69.359 6.83803 69.0326 6.78153 68.3689 7.43621C67.0225 8.76418 68.3738 9.34563 74.6668 10.1472C81.345 10.9978 82.068 11.1328 83.6541 11.82C84.282 12.0921 85.5326 12.3568 86.4327 12.4087C87.3328 12.4606 88.0695 12.6691 88.0698 12.8722C88.0706 13.5267 92.7163 15.4796 93.3462 15.0903C93.6811 14.8833 93.954 14.962 93.954 15.2653C93.954 15.5685 94.9102 16.3677 96.0789 17.0402C97.2475 17.7128 99.6606 19.3151 101.441 20.6017C103.221 21.8882 105.133 22.9461 105.689 22.9526C106.245 22.9587 106.701 23.2766 106.702 23.6587C106.703 24.0408 107.998 25.8989 109.58 27.7884C111.761 30.3935 112.605 31.0158 113.074 30.3628C113.526 29.732 113.591 29.8138 113.315 30.6679C112.777 32.3348 116.548 37.3444 118.353 37.3605C119.953 37.3748 120.699 39.4074 119.228 39.7446C118.461 39.9203 118.631 40.707 120.092 43.7594C121.092 45.8477 121.934 47.6929 121.964 47.8597C122.172 49.0224 123.291 50.0158 124.683 50.2718C126.288 50.5672 126.285 50.5739 124.519 50.6613C123.397 50.7169 122.721 51.119 122.721 51.7314C122.721 52.5907 123.268 53.237 126.317 55.9811C128.696 58.1224 132.093 54.3752 132.093 49.6091C132.093 47.3846 131.815 47.0185 128.755 45.2074C126.919 44.1209 125.239 43.0467 125.021 42.8208C124.803 42.5948 124.971 41.0331 125.395 39.35C125.958 37.1137 125.974 35.8681 125.453 34.7249C124.844 33.3889 124.895 33.2195 125.8 33.5667C126.507 33.8379 126.702 33.7193 126.386 33.2091C126.124 32.784 126.269 32.4442 126.714 32.4442C127.156 32.4442 127.348 32.2759 127.142 32.0701C126.817 31.745 125.162 31.3857 121.414 30.8276C120.874 30.7473 119.463 30.2729 118.276 29.7728C116.436 28.9975 116.147 28.5786 116.315 26.9252C116.472 25.3707 116.217 24.9156 115.034 24.6292L113.558 24.2717L115.198 21.1955C116.099 19.5039 116.837 17.9593 116.837 17.763C116.837 17.5667 115.807 17.4067 114.549 17.4067C113.29 17.4067 112.296 17.6274 112.338 17.8971C112.676 20.0332 110.628 20.9867 109.882 19.0412C109.652 18.4429 108.663 18.0605 107.343 18.0605H105.178L104.036 12.7675C103.407 9.85673 102.573 7.35312 102.183 7.20382C101.793 7.05451 100.16 7.31343 98.5549 7.77845C96.3773 8.40944 95.523 9.0329 95.1875 10.2366C94.7559 11.7849 94.7354 11.7905 94.6729 10.3783C94.6028 8.79325 94.1522 8.59447 92.7039 9.51128C91.4912 10.2789 90.8477 9.51992 88.1643 4.15188C86.9576 1.73791 85.7806 -0.127862 85.5491 0.00686114ZM50.7238 0.0158068C50.5004 -0.1139 49.415 1.46585 48.3116 3.52617C44.7305 10.2135 45.2902 9.91637 39.3959 8.26242C35.2074 7.08714 34.181 6.98676 33.7262 7.70439C32.892 9.02053 33.0376 10.0317 34.1208 10.4473C35.3508 10.9193 34.7408 12.603 33.1937 13.0076C32.4496 13.2022 31.8522 14.2131 31.5605 15.7684L31.0995 18.2214L25.2599 17.7655L19.4204 17.3084V18.9544C19.4204 19.8838 20.0161 21.0187 20.788 21.5594L22.1556 22.5171L20.7203 23.9524C19.6624 25.0104 19.3824 25.873 19.6541 27.2317C20.019 29.0563 19.9703 29.0878 14.9817 30.221C12.2093 30.8508 9.69343 31.5767 9.39115 31.8338C9.08884 32.091 9.4611 34.5596 10.2186 37.3209C10.9762 40.0822 11.4328 42.606 11.2338 42.928C11.0346 43.2501 8.82792 44.5877 6.32901 45.9008C3.83011 47.2139 1.89338 48.4748 2.02566 48.7025C2.15786 48.9301 3.49985 51.1421 5.00735 53.6188L7.74898 58.1226L5.06992 60.8502C3.59709 62.3509 2.62003 63.8291 2.89782 64.1345C3.17562 64.44 3.07461 64.5028 2.67306 64.2737C2.27163 64.0447 1.42154 64.433 0.784447 65.1369C-0.16301 66.1839 -0.224196 66.5977 0.449886 67.4099C1.57091 68.7607 2.60317 68.6574 3.57843 67.0958C4.02757 66.3766 4.98077 65.7882 5.69691 65.7882C6.61004 65.7882 7.00027 65.3488 7.00324 64.3171C7.00818 62.5869 8.93168 59.6056 10.1037 59.5119C11.9841 59.3615 12.2286 59.194 12.2286 58.0613C12.2286 53.8139 16.7677 41.6691 20.5684 35.7464C21.8494 33.7501 22.9 31.7618 22.9027 31.3281C22.9051 30.8945 23.1335 30.6798 23.4096 30.8506C23.6858 31.0213 24.6924 30.1388 25.6456 28.8892C27.8335 26.0206 35.0028 20.1485 39.6487 17.4208C46.7073 13.2765 52.6266 11.4042 63.7156 9.80753C64.8842 9.63925 65.8405 9.2212 65.8405 8.8779C65.8405 8.5346 66.4289 7.66504 67.1481 6.94586C67.8673 6.22668 68.4557 4.90272 68.4557 4.00375C68.4557 2.69614 68.1288 2.36924 66.8212 2.36924C65.9222 2.36924 65.1867 2.0152 65.1867 1.58263C65.1867 1.15007 64.0495 1.90711 62.6596 3.26439L60.1325 5.73148L55.6311 2.99239C53.1555 1.48557 50.9474 0.145513 50.7238 0.0158068ZM86.2246 1.71288C86.3041 1.72919 86.3792 1.7667 86.4442 1.83164C86.5806 1.96797 86.4516 2.47024 86.1556 2.9477C85.8082 3.50981 85.4707 3.57724 85.1992 3.13797C84.8499 2.57289 85.6668 1.59942 86.2246 1.71288ZM82.8789 4.33065C83.2597 4.33065 83.3884 4.62487 83.1662 4.98446C82.9441 5.34405 82.6328 5.63826 82.4741 5.63826C82.3155 5.63826 82.1855 5.34405 82.1855 4.98446C82.1855 4.62487 82.4981 4.33065 82.8789 4.33065ZM62.4948 6.94586C62.8544 6.94586 63.33 7.24008 63.5521 7.59967C63.7743 7.95926 63.6628 8.25347 63.3031 8.25347C62.9435 8.25347 62.4667 7.95926 62.2445 7.59967C62.0224 7.24008 62.1353 6.94586 62.4948 6.94586ZM81.5317 7.59967C81.8913 7.59967 82.1855 7.87679 82.1855 8.21516C82.1855 8.55353 81.8913 9.01193 81.5317 9.23417C81.1721 9.45642 80.8779 9.1793 80.8779 8.61869C80.8779 8.05808 81.1721 7.59967 81.5317 7.59967ZM65.9758 14.4046C65.4941 14.4246 64.8757 14.4715 64.1 14.5425C55.0019 15.375 46.1923 18.4186 39.3499 23.093C34.1072 26.6747 29.8812 30.681 29.8812 32.0701C29.8812 32.8559 31.2944 31.9146 34.4834 29.0041C42.1058 22.0473 52.7211 17.1956 62.2752 16.3034C64.5939 16.0869 66.8124 15.5241 67.2042 15.052C67.6387 14.5286 67.4209 14.3443 65.9758 14.4046ZM74.2862 14.8362C73.5986 14.8444 73.0324 14.9293 72.6186 15.1018C71.7534 15.4625 72.8755 15.87 76.4763 16.5039C83.2306 17.6931 90.8774 20.7135 95.7494 24.1146C100.554 27.4682 107.219 33.7433 108.776 36.3785C109.523 37.6439 110.075 38.0396 110.387 37.5342C111.455 35.8066 103.576 27.5739 96.1542 22.6627C89.8747 18.5072 79.0998 14.7787 74.2862 14.8362ZM68.886 15.052C68.6052 15.0184 68.3058 15.161 68.1364 15.4351C67.9106 15.8006 68.1836 16.0991 68.7443 16.0991C69.8927 16.0991 70.0623 15.707 69.1555 15.1465C69.0717 15.0948 68.9795 15.0632 68.886 15.052ZM119.53 35.0594C119.89 35.0594 120.001 35.3536 119.779 35.7132C119.557 36.0728 119.082 36.367 118.722 36.367C118.362 36.367 118.249 36.0728 118.472 35.7132C118.694 35.3536 119.171 35.0594 119.53 35.0594ZM26.4692 37.1051C26.3901 37.1019 26.2935 37.1128 26.1806 37.1345C24.5662 37.4454 21.1379 43.4969 19.1229 49.5938C17.0704 55.804 15.9853 63.2778 17.0376 63.9532C17.5038 64.2524 18.1113 62.252 18.8253 58.069C19.9972 51.2039 22.325 44.7688 25.3736 39.9617C26.733 37.8181 27.023 37.1276 26.4692 37.1051ZM111.499 39.0984C111.374 39.0794 111.269 39.1044 111.192 39.1814C110.902 39.4707 110.984 39.912 111.374 40.1622C111.765 40.4123 112.291 41.2787 112.544 42.0878C113.048 43.7025 114.222 44.0967 114.222 42.651C114.222 41.4912 112.376 39.2318 111.499 39.0984ZM114.814 44.2127C113.945 44.2127 114.09 45.697 115.223 48.4088C115.773 49.7257 116.489 50.6385 116.814 50.4379C117.525 49.9987 115.666 44.2127 114.814 44.2127ZM133.182 48.1355C132.823 48.1355 132.528 48.4297 132.528 48.7893C132.528 49.1489 132.823 49.4431 133.182 49.4431C133.542 49.4431 133.836 49.1489 133.836 48.7893C133.836 48.4297 133.542 48.1355 133.182 48.1355ZM117.73 51.6305C117.71 51.6275 117.691 51.6351 117.674 51.6522C117.605 51.721 117.559 51.9495 117.543 52.3303C117.515 53.0195 117.67 53.4057 117.887 53.1884C118.104 52.9712 118.127 52.4077 117.938 51.9357C117.86 51.7401 117.789 51.6395 117.73 51.6305ZM117.027 54.2866C116.877 54.2311 116.9 54.4364 117.063 54.8906C117.299 55.5493 117.491 56.5055 117.491 57.0155C117.491 57.5254 117.768 57.9425 118.106 57.9425C119.404 57.9425 119.37 56.741 118.03 55.2482C117.5 54.6582 117.177 54.3421 117.027 54.2866ZM124.833 56.1574C124.412 56.0952 124.029 56.4372 124.029 57.2338C124.029 58.0369 124.452 58.5963 125.058 58.5963C125.667 58.5963 126 58.151 125.875 57.5058C125.716 56.6857 125.255 56.2195 124.833 56.1574ZM127.515 57.3986C126.967 57.3386 126.644 57.8295 126.644 58.8798C126.644 60.1159 127.034 60.5172 128.389 60.6778C130.091 60.8799 130.074 60.9107 127.689 62.039C126.345 62.674 125.394 62.9552 125.575 62.6622C125.756 62.3692 125.668 61.7482 125.38 61.2818C125.078 60.7925 124.843 62.0224 124.823 64.1894C124.682 79.8823 119.482 93.819 109.888 104.221C108.324 105.917 107.043 107.525 107.038 107.795C107.035 108.065 106.605 108.285 106.086 108.285C105.567 108.285 104.758 108.805 104.288 109.44C102.937 111.266 95.1711 116.022 89.9686 118.207C84.0817 120.681 74.7895 122.648 68.946 122.66C65.6138 122.667 64.5328 122.892 64.5328 123.58C64.5328 124.08 64.0915 124.66 63.5521 124.867C63.0127 125.074 62.5714 124.959 62.5714 124.613C62.5714 123.731 57.8383 121.728 52.5588 120.374C46.5487 118.834 37.836 114.288 32.4569 109.887C19.4831 99.2725 12.1007 83.8494 11.4266 65.9516C11.3285 63.3449 11.0439 61.2119 10.7945 61.2116C10.0262 61.2106 8.30574 64.0496 8.30574 65.3183C8.30574 65.9787 8.0443 66.3572 7.72471 66.1598C7.40513 65.9623 6.3971 66.7806 5.48365 67.9782L3.82232 70.1554L5.79014 72.1232L7.75791 74.091L5.01246 78.6025C3.50222 81.0836 2.14322 83.325 1.99246 83.5826C1.84172 83.8402 3.42145 84.919 5.5028 85.9808C12.1778 89.3859 11.9349 88.9389 10.285 94.8186C9.50039 97.6148 9.01429 100.058 9.20471 100.248C9.39523 100.439 11.8457 101.232 14.6497 102.012L19.7473 103.429L19.5174 109.127L19.2876 114.823H21.2618C22.3471 114.823 23.3582 114.456 23.5092 114.006C23.7289 113.352 24.2395 113.352 26.0619 114.006C27.3147 114.456 28.9497 114.823 29.6948 114.823C31.1079 114.823 31.8426 115.978 31.8426 118.197C31.8426 119.308 32.1363 119.44 33.8054 119.073C35.2691 118.752 35.8682 118.904 36.1639 119.675C36.3818 120.243 37.2464 120.708 38.0857 120.708C38.925 120.708 39.7931 121.002 40.0152 121.361C40.5794 122.274 41.6845 122.18 41.4863 121.236C41.3963 120.808 41.8161 120.35 42.4184 120.217C43.138 120.059 43.8743 120.719 44.565 122.14C46.3208 125.753 47.3402 126.704 49.6933 126.923C51.4111 127.082 51.9274 126.89 51.8654 126.114C51.8207 125.555 52.1514 124.968 52.6009 124.809C53.0504 124.651 53.4182 124.987 53.4182 125.556C53.4182 126.156 53.9688 126.592 54.7258 126.592C55.4522 126.592 56.0334 127.028 56.0334 127.573C56.0334 128.843 56.6823 128.81 58.6333 127.444C60.2052 126.343 60.2427 126.364 63.8458 130.385C65.8419 132.612 67.8004 134.436 68.1977 134.436C68.974 134.438 72.3785 130.609 72.3785 129.735C72.3785 129.444 71.9201 129.207 71.3595 129.207C70.7988 129.207 70.5327 128.896 70.7682 128.515C71.0035 128.134 71.8627 127.909 72.6773 128.016C73.4919 128.122 74.6302 127.819 75.2069 127.34C76.0921 126.606 76.539 126.665 78.0763 127.721C79.0778 128.409 81.2867 129.768 82.9849 130.741L86.0726 132.509L87.9995 128.733C91.378 122.111 91.0133 122.322 96.3521 123.912C101.771 125.525 102.196 125.568 101.231 124.406C100.664 123.722 100.9 123.335 102.295 122.659L104.088 121.789L102.309 121.413C100.291 120.984 100.674 119.419 102.75 119.611C103.698 119.699 104.155 119.124 104.604 117.275C105.197 114.836 105.216 114.823 108.573 114.823C111.259 114.823 112.116 114.552 112.778 113.492C113.235 112.759 114.377 111.869 115.315 111.512C116.954 110.889 117.005 110.715 116.623 107.061L116.225 103.259L121.467 102.062C124.35 101.403 126.854 100.629 127.032 100.34C127.661 99.3232 125.955 94.5556 124.962 94.5556C124.215 94.5556 124.135 94.2718 124.627 93.3539C124.98 92.6929 125.11 91.5389 124.914 90.7898C124.614 89.6414 125.336 89 129.525 86.701C132.257 85.2014 134.381 83.781 134.243 83.5443C134.105 83.3076 132.759 81.0868 131.251 78.6102L128.51 74.1076L131.273 71.2932L134.035 68.4775L132.869 66.6425C132.228 65.6331 131.109 64.1527 130.383 63.353C129.202 62.0511 129.176 61.8559 130.137 61.4874C131.087 61.1227 131.043 60.8646 129.745 59.2182C128.838 58.0688 128.063 57.4585 127.515 57.3986ZM118.799 59.2502C118.439 59.2502 118.145 60.2799 118.145 61.5385C118.145 63.21 118.43 63.8268 119.202 63.8268C119.979 63.8268 120.155 63.4372 119.865 62.3557C119.648 61.5466 119.466 60.5169 119.461 60.0674C119.456 59.6179 119.158 59.2502 118.799 59.2502ZM3.94108 63.3058C4.07575 63.3228 4.26839 63.4505 4.50297 63.685C4.92846 64.1106 5.12547 64.6102 4.93967 64.796C4.50335 65.2323 3.72912 64.4594 3.72912 63.5867C3.72912 63.3819 3.80616 63.2887 3.94108 63.3058ZM119.223 64.4806C118.349 64.4806 118.144 65.1899 118.135 68.2399C118.091 82.5414 109.192 98.6294 96.6203 107.136C94.9789 108.247 94.973 108.275 96.3917 108.28C97.2172 108.283 98.3004 107.594 98.8933 106.689C99.4684 105.812 100.714 105.002 101.663 104.891C104.192 104.595 110.986 96.1874 114.505 88.9982C117.741 82.3887 119.246 76.9234 119.872 69.5169C120.246 65.1037 120.166 64.4806 119.223 64.4806ZM17.4513 65.1344C16.4503 65.1344 16.1391 67.3317 16.56 71.44C16.9234 74.9871 17.1093 75.4473 17.7808 74.4651C18.636 73.2142 18.3509 65.1344 17.4513 65.1344ZM18.6121 74.4473C18.4801 74.38 18.337 74.719 18.0732 75.4088C16.7372 78.902 21.6479 90.7655 27.5559 98.3162C32.8353 105.063 42.1097 111.964 49.3983 114.568C52.081 115.526 53.2097 115.596 54.9416 114.914C55.8476 114.557 55.3724 114.247 52.9802 113.633C48.7993 112.562 40.5759 108.017 36.2507 104.387C27.6867 97.2 21.7241 87.3162 19.0807 75.9221C18.864 74.9875 18.7441 74.5145 18.6121 74.4473ZM14.5654 94.1827C15.9762 94.2376 18.2425 95.8024 17.9366 96.7213C17.5003 98.0315 15.8966 97.7816 14.4224 96.1735C13.2322 94.8752 13.1715 94.5851 14.024 94.258C14.1806 94.1979 14.3638 94.1748 14.5654 94.1827ZM94.4967 109.611C93.6785 109.549 91.9773 110.035 90.0108 110.985C85.1494 113.334 80.37 114.754 74.6157 115.559C69.3723 116.293 68.5332 116.644 69.5641 117.675C70.206 118.317 77.7557 117.411 78.8182 116.565C79.3033 116.179 80.8023 115.807 82.1485 115.738C84.6958 115.607 94.0873 111.62 94.8836 110.331C95.1611 109.882 94.9876 109.648 94.4967 109.611ZM57.5007 114.931C56.9441 114.914 56.6872 115.144 56.6872 115.641C56.6872 116.279 57.8377 116.822 60.1197 117.261C65.2244 118.242 67.6139 118.218 68.0113 117.182C68.2786 116.485 67.3385 116.169 63.9952 115.826C61.5943 115.58 58.9674 115.222 58.1583 115.03C57.9044 114.97 57.6862 114.936 57.5007 114.931ZM34.5268 122.04C34.4789 122.047 34.5606 122.327 34.7362 122.886C34.9433 123.545 35.1117 124.354 35.1117 124.684C35.1117 125.453 35.8311 125.433 37.0731 124.631C37.9171 124.085 37.8995 123.997 36.9428 123.987C36.3314 123.981 35.4997 123.462 35.0951 122.833C34.7516 122.298 34.5747 122.032 34.5268 122.04ZM63.2648 122.669C62.884 122.669 62.5714 122.963 62.5714 123.323C62.5714 123.682 62.7014 123.977 62.86 123.977C63.0187 123.977 63.33 123.682 63.5521 123.323C63.7743 122.963 63.6455 122.669 63.2648 122.669ZM86.0726 124.034C86.1504 124.022 86.2246 124.022 86.2922 124.037C86.3696 124.053 86.4384 124.089 86.4953 124.145C86.6599 124.31 86.3463 124.817 85.7981 125.272C85.1767 125.787 84.8008 125.837 84.8008 125.403C84.8008 124.798 85.5282 124.117 86.0726 124.034ZM51.596 131.217C51.3419 131.21 50.9619 131.406 50.6293 131.741C49.9884 132.386 50.064 132.462 50.9958 132.107C51.6406 131.862 52.003 131.496 51.8016 131.295C51.7512 131.245 51.6807 131.22 51.596 131.217Z" fill="#BB3E03"/>
<path d="M87.5079 38.3746L65.3539 34.5219L64.3907 40.0604L58.8522 39.0972L57.889 44.6357L52.3506 43.6725L47.5347 71.365L41.9962 70.4019L41.033 75.9404L46.5715 76.9035L45.6083 82.442L51.1468 83.4052L50.1836 88.9437L55.7221 89.9069L54.759 95.4454L60.2975 96.4085L61.2606 90.8701L66.7991 91.8332L67.7623 86.2947L73.3008 87.2579L74.264 81.7194L79.8025 82.6826L80.7657 77.1441L86.3042 78.1073L92.0832 44.8763L86.5447 43.9131L87.5079 38.3746Z" fill="#9D4EDD"/>
<path d="M96.4179 85.5722L90.8789 84.6089L89.9158 90.1469L84.3779 89.1838L83.4146 94.7228L77.8757 93.7595L76.9126 99.2975L71.3746 98.3344L70.4114 103.873L64.8724 102.91L61.9828 119.526L56.4449 118.563L55.4818 124.101L44.4049 122.174L43.4416 127.713L37.9027 126.75L36.9396 132.288L31.4016 131.325L32.3647 125.787L37.9027 126.75L38.8659 121.211L44.4049 122.174L45.368 116.637L56.4449 118.563L59.3345 101.947L53.7955 100.984L54.7588 95.4448L60.2977 96.4081L59.3345 101.947L64.8724 102.91L65.8357 97.3712L71.3746 98.3344L72.3377 92.7964L77.8757 93.7595L78.8389 88.2206L84.3779 89.1838L85.341 83.6459L90.8789 84.6089L96.6579 51.3782L102.197 52.3415L96.4179 85.5722ZM54.7588 95.4448L49.2208 94.4817L50.1839 88.9438L55.7219 89.9068L54.7588 95.4448ZM50.1839 88.9438L44.6449 87.9805L45.6082 82.4416L51.1471 83.4048L50.1839 88.9438ZM45.6082 82.4416L40.0702 81.4785L41.0333 75.9405L46.5713 76.9036L45.6082 82.4416ZM87.5074 38.375L59.8156 33.5592L58.8525 39.0972L53.3135 38.1339L52.3503 43.6729L46.8123 42.7098L41.0333 75.9405L35.4944 74.9773L41.2734 41.7465L46.8123 42.7098L47.7756 37.1708L53.3135 38.1339L54.2766 32.5959L59.8156 33.5592L60.7788 28.0203L88.4706 32.836L87.5074 38.375ZM96.6579 51.3782L91.12 50.4151L92.0832 44.8762L97.6212 45.8393L96.6579 51.3782ZM93.0463 39.3382L92.0832 44.8762L86.5443 43.9129L87.5074 38.375L93.0463 39.3382Z" fill="black"/>
<rect x="68.9661" y="46.5621" width="5.62162" height="5.62162" transform="rotate(9.86539 68.9661 46.5621)" fill="white"/>
<rect x="53.3137" y="38.134" width="5.62162" height="5.62162" transform="rotate(9.86539 53.3137 38.134)" fill="#6411AD"/>
<rect x="46.812" y="42.7094" width="5.62162" height="28.1081" transform="rotate(9.86539 46.812 42.7094)" fill="#6411AD"/>
<rect x="91.1201" y="50.4148" width="5.62162" height="28.1081" transform="rotate(9.86539 91.1201 50.4148)" fill="#3C096C"/>
<rect x="59.8154" y="33.5587" width="5.62162" height="5.62162" transform="rotate(9.86539 59.8154 33.5587)" fill="#6411AD"/>
<rect x="63.4274" y="45.5989" width="5.62162" height="5.62162" transform="rotate(9.86539 63.4274 45.5989)" fill="#6411AD"/>
<rect x="74.5044" y="47.5252" width="5.62162" height="5.62162" transform="rotate(9.86539 74.5044 47.5252)" fill="white"/>
<rect x="73.5413" y="53.0637" width="5.62162" height="5.62162" transform="rotate(9.86539 73.5413 53.0637)" fill="#6411AD"/>
<rect x="79.0799" y="54.0269" width="5.62162" height="5.62162" transform="rotate(9.86539 79.0799 54.0269)" fill="white"/>
<rect x="86.3043" y="78.1072" width="5.62162" height="5.62162" transform="rotate(9.86539 86.3043 78.1072)" fill="#3C096C"/>
<rect x="80.7656" y="77.144" width="5.62162" height="5.62162" transform="rotate(9.86539 80.7656 77.144)" fill="#3C096C"/>
<rect x="74.264" y="81.7194" width="5.62162" height="5.62162" transform="rotate(9.86539 74.264 81.7194)" fill="#3C096C"/>
<rect x="67.7623" y="86.2947" width="5.62162" height="5.62162" transform="rotate(9.86539 67.7623 86.2947)" fill="#3C096C"/>
<rect x="61.2606" y="90.87" width="5.62162" height="5.62162" transform="rotate(9.86539 61.2606 90.87)" fill="#3C096C"/>
<rect x="79.8024" y="82.6826" width="5.62162" height="5.62162" transform="rotate(9.86539 79.8024 82.6826)" fill="#3C096C"/>
<rect x="73.3008" y="87.2579" width="5.62162" height="5.62162" transform="rotate(9.86539 73.3008 87.2579)" fill="#3C096C"/>
<rect x="66.7991" y="91.8332" width="5.62162" height="5.62162" transform="rotate(9.86539 66.7991 91.8332)" fill="#3C096C"/>
<rect x="60.2974" y="96.4085" width="5.62162" height="5.62162" transform="rotate(9.86539 60.2974 96.4085)" fill="#3C096C"/>
<rect x="75.4677" y="41.9867" width="5.62162" height="5.62162" transform="rotate(9.86539 75.4677 41.9867)" fill="white"/>
</svg>
