<svg width="132" height="132" viewBox="0 0 132 132" fill="none" xmlns="http://www.w3.org/2000/svg">
<path d="M83.5661 0.0067021C83.3399 0.138326 81.179 1.44919 78.7637 2.91929L74.3718 5.59239L72.4957 3.79494C71.2105 2.56362 70.7586 2.36003 71.0613 3.14881C71.3196 3.82196 71.0205 5.19632 70.3415 6.45681C69.301 8.38896 69.098 8.50151 68.3869 7.53952C67.7513 6.67952 67.4325 6.62434 66.7841 7.26385C65.4689 8.56103 66.7889 9.129 72.9361 9.912C79.4594 10.7429 80.1657 10.8748 81.715 11.546C82.3284 11.8118 83.55 12.0704 84.4293 12.1211C85.3085 12.1718 86.0281 12.3755 86.0284 12.5739C86.0292 13.2131 90.5672 15.1208 91.1825 14.7405C91.5096 14.5384 91.7762 14.6152 91.7762 14.9114C91.7762 15.2077 92.7102 15.9883 93.8518 16.6452C94.9934 17.3022 97.3505 18.8674 99.0895 20.1241C100.829 21.3809 102.696 22.4143 103.239 22.4205C103.783 22.4266 104.228 22.7371 104.229 23.1103C104.23 23.4836 105.495 25.2986 107.04 27.1443C109.171 29.689 109.995 30.2969 110.453 29.659C110.895 29.0429 110.958 29.1227 110.689 29.9571C110.163 31.5853 113.846 36.4788 115.61 36.4945C117.172 36.5085 117.901 38.4939 116.464 38.8233C115.715 38.995 115.881 39.7634 117.308 42.745C118.285 44.785 119.108 46.5874 119.137 46.7503C119.34 47.8861 120.433 48.8564 121.793 49.1066C123.361 49.3951 123.358 49.4016 121.633 49.487C120.536 49.5413 119.877 49.9341 119.877 50.5323C119.877 51.3717 120.411 52.003 123.389 54.6835C125.713 56.7751 129.031 53.1148 129.031 48.4592C129.031 46.2862 128.759 45.9287 125.771 44.1595C123.977 43.0982 122.336 42.0489 122.123 41.8282C121.91 41.6075 122.075 40.082 122.489 38.4379C123.039 36.2534 123.054 35.0367 122.545 33.9199C121.95 32.615 122 32.4494 122.884 32.7886C123.575 33.0535 123.765 32.9377 123.457 32.4393C123.2 32.0241 123.342 31.6922 123.777 31.6922C124.209 31.6922 124.396 31.5277 124.195 31.3267C123.878 31.0092 122.261 30.6582 118.599 30.113C118.073 30.0346 116.694 29.5712 115.535 29.0827C113.737 28.3253 113.455 27.9161 113.619 26.3011C113.772 24.7826 113.524 24.338 112.368 24.0583L110.926 23.7091L112.527 20.7042C113.408 19.0518 114.129 17.543 114.129 17.3513C114.129 17.1595 113.123 17.0032 111.894 17.0032C110.664 17.0032 109.693 17.2188 109.734 17.4822C110.064 19.5689 108.064 20.5003 107.335 18.5999C107.11 18.0154 106.144 17.6419 104.855 17.6419H102.741L101.624 12.4716C101.01 9.62825 100.195 7.18268 99.8142 7.03684C99.4331 6.89099 97.838 7.14391 96.2705 7.59815C94.1433 8.21451 93.3089 8.82352 92.9811 9.99931C92.5595 11.5117 92.5395 11.5172 92.4785 10.1378C92.4099 8.58942 91.9698 8.39525 90.5551 9.29081C89.3705 10.0407 88.7419 9.29925 86.1207 4.05564C84.9419 1.69762 83.7923 -0.124898 83.5661 0.0067021ZM49.5481 0.0154404C49.3298 -0.111259 48.2696 1.43187 47.1918 3.44444C43.6937 9.9768 44.2404 9.68651 38.4827 8.0709C34.3913 6.92286 33.3887 6.82481 32.9444 7.5258C32.1296 8.81143 32.2718 9.79913 33.3299 10.2051C34.5314 10.6662 33.9355 12.3109 32.4243 12.7061C31.6974 12.8962 31.1139 13.8836 30.8289 15.4029L30.3786 17.7991L24.6744 17.3537L18.9702 16.9072V18.515C18.9702 19.4229 19.5521 20.5315 20.3062 21.0597L21.6421 21.9952L20.24 23.3972C19.2066 24.4306 18.9331 25.2732 19.1985 26.6004C19.555 28.3828 19.5074 28.4136 14.6344 29.5205C11.9263 30.1357 9.46874 30.8447 9.17346 31.0959C8.87816 31.3471 9.2418 33.7586 9.98177 36.4558C10.7217 39.1531 11.1678 41.6184 10.9734 41.933C10.7789 42.2476 8.6233 43.5542 6.1823 44.8369C3.74133 46.1195 1.84949 47.3512 1.9787 47.5736C2.10784 47.7959 3.41873 49.9567 4.89128 52.3759L7.56936 56.7753L4.95241 59.4397C3.51371 60.9056 2.55929 62.3495 2.83065 62.6479C3.10201 62.9463 3.00334 63.0076 2.6111 62.7839C2.21898 62.5602 1.38859 62.9394 0.766264 63.6271C-0.159231 64.6498 -0.219 65.054 0.439458 65.8474C1.5345 67.1668 2.54283 67.066 3.49548 65.5405C3.93421 64.838 4.86532 64.2632 5.56486 64.2632C6.45683 64.2632 6.83801 63.834 6.84091 62.8263C6.84573 61.1362 8.72465 58.224 9.86951 58.1325C11.7064 57.9855 11.9451 57.8219 11.9451 56.7155C11.9451 52.5665 16.3791 40.7032 20.0916 34.9178C21.343 32.9678 22.3691 31.0256 22.3718 30.602C22.3742 30.1784 22.5972 29.9687 22.867 30.1355C23.1368 30.3022 24.1201 29.4402 25.0511 28.2195C27.1884 25.4174 34.1915 19.6814 38.7297 17.017C45.6247 12.9687 51.4067 11.1399 62.2387 9.5802C63.3803 9.41582 64.3143 9.00745 64.3143 8.67212C64.3143 8.33678 64.8891 7.48737 65.5916 6.78486C66.2941 6.08235 66.8689 4.78908 66.8689 3.91094C66.8689 2.63365 66.5496 2.31433 65.2723 2.31433C64.3941 2.31433 63.6757 1.96849 63.6757 1.54595C63.6757 1.12341 62.5649 1.86291 61.2071 3.18872L58.7386 5.59863L54.3416 2.92303C51.9234 1.45114 49.7665 0.14214 49.5481 0.0154404ZM84.2259 1.67318C84.3036 1.68911 84.377 1.72575 84.4405 1.78918C84.5737 1.92235 84.4477 2.41298 84.1586 2.87938C83.8192 3.42845 83.4895 3.49432 83.2243 3.06524C82.8831 2.51325 83.6811 1.56234 84.2259 1.67318ZM80.9578 4.23026C81.3297 4.23026 81.4555 4.51767 81.2385 4.86892C81.0215 5.22018 80.7174 5.50756 80.5624 5.50756C80.4075 5.50756 80.2805 5.22018 80.2805 4.86892C80.2805 4.51767 80.5858 4.23026 80.9578 4.23026ZM61.0462 6.78486C61.3975 6.78486 61.862 7.07225 62.079 7.42351C62.296 7.77477 62.1872 8.06216 61.8358 8.06216C61.4846 8.06216 61.0187 7.77477 60.8017 7.42351C60.5847 7.07225 60.695 6.78486 61.0462 6.78486ZM79.6419 7.42351C79.9931 7.42351 80.2805 7.69421 80.2805 8.02474C80.2805 8.35526 79.9931 8.80303 79.6419 9.02013C79.2906 9.23723 79.0032 8.96653 79.0032 8.41891C79.0032 7.87129 79.2906 7.42351 79.6419 7.42351ZM64.4465 14.0707C63.976 14.0902 63.3719 14.1361 62.6142 14.2054C53.727 15.0186 45.1216 17.9917 38.4378 22.5577C33.3166 26.0564 29.1886 29.9698 29.1886 31.3267C29.1886 32.0943 30.569 31.1748 33.6841 28.3318C41.1298 21.5363 51.4991 16.797 60.8317 15.9255C63.0967 15.714 65.2638 15.1643 65.6465 14.7031C66.0709 14.1918 65.8582 14.0118 64.4465 14.0707ZM72.5643 14.4923C71.8926 14.5003 71.3395 14.5832 70.9353 14.7518C70.0902 15.1041 71.1863 15.5021 74.7036 16.1214C81.3014 17.283 88.771 20.2334 93.53 23.5556C98.2227 26.8315 104.734 32.9612 106.254 35.5353C106.984 36.7713 107.523 37.1578 107.828 36.6641C108.871 34.9766 101.175 26.9347 93.9254 22.1374C87.7915 18.0782 77.2663 14.4361 72.5643 14.4923ZM67.2893 14.7031C67.015 14.6702 66.7225 14.8096 66.5571 15.0773C66.3365 15.4343 66.6032 15.7259 67.1508 15.7259C68.2726 15.7259 68.4383 15.3429 67.5525 14.7954C67.4707 14.7449 67.3806 14.7141 67.2893 14.7031ZM116.76 34.2468C117.111 34.2468 117.22 34.5341 117.003 34.8854C116.786 35.2367 116.321 35.5241 115.97 35.5241C115.619 35.5241 115.509 35.2367 115.726 34.8854C115.943 34.5341 116.408 34.2468 116.76 34.2468ZM25.8557 36.245C25.7784 36.2419 25.6841 36.2525 25.5738 36.2737C23.9967 36.5774 20.648 42.4886 18.6796 48.4442C16.6747 54.5105 15.6148 61.8111 16.6427 62.4708C17.0981 62.7631 17.6915 60.8091 18.389 56.723C19.5337 50.017 21.8075 43.7311 24.7854 39.0354C26.1133 36.9415 26.3967 36.267 25.8557 36.245ZM108.915 38.1922C108.793 38.1736 108.69 38.198 108.614 38.2732C108.331 38.5558 108.411 38.9869 108.793 39.2312C109.174 39.4756 109.689 40.3219 109.935 41.1122C110.428 42.6895 111.574 43.0746 111.574 41.6623C111.574 40.5295 109.771 38.3224 108.915 38.1922ZM112.153 43.1878C111.304 43.1878 111.445 44.6377 112.552 47.2867C113.09 48.5731 113.789 49.4648 114.106 49.2687C114.801 48.8398 112.985 43.1878 112.153 43.1878ZM130.095 47.0197C129.744 47.0197 129.457 47.3071 129.457 47.6584C129.457 48.0096 129.744 48.297 130.095 48.297C130.446 48.297 130.734 48.0096 130.734 47.6584C130.734 47.3071 130.446 47.0197 130.095 47.0197ZM115.001 50.4338C114.981 50.4308 114.963 50.4382 114.946 50.455C114.879 50.5221 114.834 50.7453 114.819 51.1173C114.791 51.7906 114.942 52.1678 115.154 51.9555C115.366 51.7433 115.389 51.1929 115.204 50.7319C115.128 50.5408 115.059 50.4425 115.001 50.4338ZM114.315 53.0283C114.168 52.974 114.191 53.1745 114.35 53.6183C114.58 54.2617 114.768 55.1957 114.768 55.6939C114.768 56.192 115.038 56.5995 115.369 56.5995C116.636 56.5995 116.603 55.4258 115.294 53.9675C114.777 53.3912 114.461 53.0825 114.315 53.0283ZM121.94 54.8557C121.528 54.7949 121.154 55.129 121.154 55.9072C121.154 56.6916 121.567 57.2381 122.159 57.2381C122.754 57.2381 123.08 56.8031 122.958 56.1729C122.802 55.3718 122.352 54.9164 121.94 54.8557ZM124.559 56.0681C124.024 56.0095 123.709 56.489 123.709 57.515C123.709 58.7224 124.09 59.1144 125.413 59.2713C127.076 59.4687 127.059 59.4989 124.729 60.601C123.417 61.2212 122.488 61.4959 122.665 61.2097C122.842 60.9236 122.755 60.3169 122.474 59.8613C122.178 59.3834 121.949 60.5848 121.93 62.7016C121.792 78.0307 116.712 91.6443 107.341 101.805C105.813 103.462 104.561 105.033 104.557 105.296C104.554 105.56 104.134 105.775 103.627 105.775C103.12 105.775 102.33 106.283 101.871 106.903C100.551 108.687 92.9651 113.332 87.8832 115.467C82.1328 117.883 73.0559 119.805 67.3479 119.817C64.0929 119.823 63.037 120.043 63.037 120.715C63.037 121.204 62.6059 121.77 62.079 121.972C61.5521 122.175 61.1211 122.063 61.1211 121.724C61.1211 120.863 56.4976 118.906 51.3405 117.584C45.4697 116.079 36.959 111.638 31.7046 107.34C19.0315 96.9714 11.8202 81.9058 11.1618 64.4229C11.0659 61.8766 10.7879 59.793 10.5443 59.7927C9.79381 59.7917 8.11321 62.565 8.11321 63.8042C8.11321 64.4494 7.85783 64.8191 7.54566 64.6262C7.23348 64.4333 6.24882 65.2326 5.35654 66.4025L3.73372 68.5292L5.65593 70.4514L7.57809 72.3736L4.89628 76.7805C3.42104 79.2041 2.09354 81.3936 1.94627 81.6452C1.79903 81.8968 3.34214 82.9506 5.37525 83.9878C11.8955 87.314 11.6582 86.8773 10.0466 92.6208C9.28018 95.3522 8.80534 97.7384 8.99135 97.9245C9.17745 98.1106 11.5711 98.8857 14.3101 99.6471L19.2896 101.032L19.065 106.597L18.8405 112.162H20.7689C21.8291 112.162 22.8168 111.803 22.9643 111.364C23.1789 110.725 23.6776 110.725 25.4578 111.364C26.6816 111.803 28.2787 112.162 29.0065 112.162C30.3868 112.162 31.1046 113.289 31.1046 115.457C31.1046 116.543 31.3914 116.671 33.0218 116.313C34.4516 115.999 35.0368 116.148 35.3256 116.901C35.5385 117.455 36.3831 117.91 37.2029 117.91C38.0227 117.91 38.8707 118.197 39.0877 118.548C39.6388 119.44 40.7182 119.348 40.5247 118.426C40.4368 118.008 40.8468 117.56 41.4352 117.431C42.1381 117.276 42.8573 117.921 43.532 119.309C45.2471 122.838 46.2429 123.767 48.5414 123.981C50.2194 124.137 50.7238 123.948 50.6632 123.191C50.6195 122.645 50.9426 122.071 51.3817 121.916C51.8208 121.761 52.18 122.09 52.18 122.646C52.18 123.231 52.7178 123.658 53.4573 123.658C54.1669 123.658 54.7346 124.083 54.7346 124.616C54.7346 125.856 55.3685 125.824 57.2742 124.49C58.8097 123.414 58.8463 123.435 62.3659 127.362C64.3157 129.538 66.2288 131.319 66.6169 131.32C67.3752 131.322 70.7008 127.582 70.7008 126.727C70.7008 126.444 70.253 126.212 69.7054 126.212C69.1577 126.212 68.8978 125.908 69.1279 125.536C69.3577 125.164 70.1969 124.944 70.9927 125.048C71.7884 125.153 72.9003 124.856 73.4637 124.389C74.3284 123.671 74.7649 123.729 76.2665 124.76C77.2449 125.432 79.4026 126.76 81.0614 127.71L84.0775 129.438L85.9598 125.749C89.2599 119.28 88.9037 119.486 94.1188 121.039C99.4119 122.616 99.8274 122.658 98.8849 121.522C98.3309 120.855 98.5609 120.476 99.924 119.816L101.675 118.966L99.9377 118.598C97.9666 118.18 98.3405 116.65 100.368 116.838C101.295 116.924 101.74 116.363 102.179 114.557C102.758 112.174 102.777 112.162 106.056 112.162C108.68 112.162 109.517 111.896 110.164 110.861C110.61 110.146 111.726 109.276 112.642 108.928C114.243 108.319 114.292 108.148 113.919 104.579L113.531 100.866L118.652 99.6958C121.468 99.0526 123.914 98.2961 124.088 98.0143C124.702 97.021 123.035 92.3638 122.066 92.3638C121.336 92.3638 121.258 92.0866 121.738 91.19C122.083 90.5443 122.21 89.417 122.018 88.6853C121.725 87.5636 122.431 86.937 126.523 84.6913C129.192 83.2265 131.266 81.839 131.132 81.6078C130.997 81.3766 129.682 79.2073 128.209 76.788L125.531 72.3898L128.23 69.6406L130.928 66.8902L129.79 65.0977C129.163 64.1118 128.07 62.6657 127.361 61.8845C126.207 60.6128 126.182 60.4221 127.12 60.0621C128.049 59.7059 128.005 59.4538 126.737 57.8456C125.852 56.7228 125.095 56.1267 124.559 56.0681ZM116.045 57.8768C115.694 57.8768 115.406 58.8826 115.406 60.112C115.406 61.7448 115.685 62.3473 116.439 62.3473C117.198 62.3473 117.369 61.9667 117.086 60.9103C116.874 60.12 116.697 59.1141 116.692 58.6751C116.687 58.236 116.396 57.8768 116.045 57.8768ZM3.84973 61.8384C3.98128 61.855 4.16945 61.9797 4.39859 62.2089C4.81422 62.6245 5.00666 63.1125 4.82517 63.2941C4.39897 63.7203 3.64268 62.9653 3.64268 62.1128C3.64268 61.9127 3.71793 61.8217 3.84973 61.8384ZM116.459 62.9859C115.606 62.9859 115.406 63.6788 115.396 66.6582C115.354 80.6281 106.661 96.3432 94.3807 104.653C92.7774 105.738 92.7716 105.766 94.1574 105.77C94.9638 105.773 96.0218 105.1 96.601 104.216C97.1628 103.359 98.38 102.569 99.3066 102.46C101.777 102.17 108.413 93.9578 111.851 86.9353C115.012 80.479 116.482 75.1404 117.094 67.9055C117.458 63.5946 117.38 62.9859 116.459 62.9859ZM17.0468 63.6246C16.069 63.6246 15.765 65.771 16.1762 69.7841C16.5312 73.249 16.7127 73.6984 17.3686 72.7391C18.204 71.5171 17.9255 63.6246 17.0468 63.6246ZM18.1807 72.7216C18.0518 72.6559 17.912 72.987 17.6543 73.6609C16.3493 77.0731 21.1461 88.6616 26.9172 96.0373C32.0742 102.628 41.1336 109.369 48.2533 111.912C50.8738 112.849 51.9763 112.917 53.6681 112.25C54.5531 111.902 54.0889 111.598 51.7521 110.999C47.6682 109.952 39.6354 105.513 35.4105 101.967C27.0449 94.947 21.2206 85.2923 18.6384 74.1623C18.4268 73.2494 18.3096 72.7873 18.1807 72.7216ZM14.2278 91.9996C15.6059 92.0532 17.8197 93.5817 17.5208 94.4793C17.0947 95.7592 15.5281 95.5151 14.0881 93.9442C12.9255 92.676 12.8662 92.3927 13.6989 92.0732C13.8519 92.0144 14.0309 91.9919 14.2278 91.9996ZM92.3063 107.07C91.5071 107.01 89.8453 107.484 87.9244 108.412C83.1757 110.707 78.5071 112.094 72.8862 112.88C67.7643 113.597 66.9447 113.94 67.9516 114.947C68.5786 115.574 75.9534 114.69 76.9912 113.863C77.4651 113.486 78.9293 113.123 80.2444 113.055C82.7326 112.927 91.9064 109.032 92.6843 107.774C92.9553 107.335 92.7859 107.106 92.3063 107.07ZM56.1678 112.267C55.6242 112.25 55.3732 112.475 55.3732 112.96C55.3732 113.583 56.497 114.115 58.7261 114.543C63.7125 115.502 66.0466 115.478 66.4348 114.466C66.696 113.785 65.7776 113.476 62.5119 113.141C60.1666 112.901 57.6005 112.551 56.8102 112.364C56.5622 112.305 56.349 112.272 56.1678 112.267ZM33.7265 119.211C33.6797 119.218 33.7595 119.491 33.9311 120.038C34.1334 120.681 34.2978 121.471 34.2978 121.794C34.2978 122.545 35.0006 122.526 36.2138 121.742C37.0382 121.209 37.0211 121.123 36.0865 121.113C35.4893 121.108 34.6768 120.6 34.2816 119.985C33.9461 119.463 33.7733 119.204 33.7265 119.211ZM61.7984 119.826C61.4264 119.826 61.1211 120.113 61.1211 120.464C61.1211 120.816 61.248 121.103 61.403 121.103C61.5579 121.103 61.862 120.816 62.079 120.464C62.296 120.113 62.1703 119.826 61.7984 119.826ZM84.0775 121.159C84.1535 121.148 84.226 121.147 84.292 121.162C84.3676 121.178 84.4349 121.212 84.4904 121.268C84.6511 121.428 84.3448 121.923 83.8093 122.368C83.2024 122.872 82.8351 122.92 82.8351 122.496C82.8351 121.905 83.5457 121.24 84.0775 121.159ZM50.4 128.176C50.1518 128.168 49.7807 128.36 49.4558 128.687C48.8297 129.318 48.9035 129.392 49.8138 129.045C50.4436 128.805 50.7976 128.448 50.6008 128.252C50.5516 128.202 50.4828 128.178 50.4 128.176Z" fill="#9D4EDD"/>
<path d="M47.0884 38.8235L66.4063 33.6473L67.7004 38.4768L72.5299 37.1827L73.824 42.0122L78.6535 40.7181L85.1238 64.8656L89.9533 63.5715L91.2473 68.401L86.4178 69.6951L87.7119 74.5246L82.8824 75.8187L84.1764 80.6482L79.3469 81.9422L80.641 86.7717L75.8115 88.0658L74.5174 83.2363L69.688 84.5303L68.3939 79.7008L63.5644 80.9949L62.2703 76.1654L57.4408 77.4595L56.1468 72.63L51.3173 73.924L43.5529 44.9471L48.3824 43.653L47.0884 38.8235Z" fill="#94D2BD"/>
<path d="M42.9528 81.3418L47.7815 80.0479L49.0756 84.8776L53.9052 83.5835L55.1991 88.4122L60.0287 87.1181L61.3228 91.9477L66.1524 90.6536L67.4465 95.4832L72.2761 94.1891L76.1584 108.678L80.9881 107.384L82.2822 112.214L91.9405 109.626L93.2343 114.454L98.0639 113.16L99.358 117.99L104.188 116.696L102.894 111.866L98.0639 113.16L96.7701 108.332L91.9405 109.626L90.6464 104.796L80.9881 107.384L77.1058 92.895L81.9354 91.6009L80.6413 86.7713L75.8117 88.0654L77.1058 92.895L72.2761 94.1891L70.982 89.3595L66.1524 90.6536L64.8583 85.824L60.0287 87.1181L58.7349 82.2894L53.9052 83.5835L52.6111 78.7539L47.7815 80.0479L40.0172 51.0711L35.1885 52.365L42.9528 81.3418ZM80.6413 86.7713L85.47 85.4775L84.1759 80.6478L79.3472 81.9417L80.6413 86.7713ZM84.1759 80.6478L89.0055 79.3537L87.7117 74.5251L82.8821 75.8192L84.1759 80.6478ZM87.7117 74.5251L92.5413 73.231L91.2472 68.4013L86.4176 69.6954L87.7117 74.5251ZM47.0882 38.8237L71.2354 32.3534L72.5295 37.1831L77.3592 35.889L78.6533 40.7186L83.4829 39.4245L91.2472 68.4013L96.0768 67.1072L88.3125 38.1304L83.4829 39.4245L82.1888 34.5949L77.3592 35.889L76.0651 31.0593L71.2354 32.3534L69.9413 27.5238L45.7941 33.994L47.0882 38.8237ZM40.0172 51.0711L44.8468 49.777L43.5527 44.9474L38.7231 46.2415L40.0172 51.0711ZM42.2586 40.1178L43.5527 44.9474L48.3823 43.6533L47.0882 38.8237L42.2586 40.1178Z" fill="black"/>
<rect width="4.99986" height="4.99986" transform="matrix(-0.965926 0.258819 0.258819 0.965926 64.1649 44.6003)" fill="white"/>
<rect width="4.99986" height="4.99986" transform="matrix(-0.965926 0.258819 0.258819 0.965926 77.3594 35.8886)" fill="#0A9396"/>
<rect width="4.99986" height="24.9993" transform="matrix(-0.965926 0.258819 0.258819 0.965926 83.4829 39.4241)" fill="#0A9396"/>
<rect width="4.99986" height="24.9993" transform="matrix(-0.965926 0.258819 0.258819 0.965926 44.8469 49.7766)" fill="#005F73"/>
<rect width="4.99986" height="4.99986" transform="matrix(-0.965926 0.258819 0.258819 0.965926 71.2358 32.3532)" fill="#0A9396"/>
<rect width="4.99986" height="4.99986" transform="matrix(-0.965926 0.258819 0.258819 0.965926 68.9944 43.3062)" fill="#0A9396"/>
<rect width="4.99986" height="4.99986" transform="matrix(-0.965926 0.258819 0.258819 0.965926 59.3354 45.8944)" fill="white"/>
<rect width="4.99986" height="4.99986" transform="matrix(-0.965926 0.258819 0.258819 0.965926 60.6296 50.7239)" fill="#0A9396"/>
<rect width="4.99986" height="4.99986" transform="matrix(-0.965926 0.258819 0.258819 0.965926 55.8 52.0179)" fill="white"/>
<rect width="4.99986" height="4.99986" transform="matrix(-0.965926 0.258819 0.258819 0.965926 51.3172 73.924)" fill="#005F73"/>
<rect width="4.99986" height="4.99986" transform="matrix(-0.965926 0.258819 0.258819 0.965926 56.1467 72.63)" fill="#005F73"/>
<rect width="4.99986" height="4.99986" transform="matrix(-0.965926 0.258819 0.258819 0.965926 62.2703 76.1654)" fill="#005F73"/>
<rect width="4.99986" height="4.99986" transform="matrix(-0.965926 0.258819 0.258819 0.965926 68.3939 79.7009)" fill="#005F73"/>
<rect width="4.99986" height="4.99986" transform="matrix(-0.965926 0.258819 0.258819 0.965926 74.5175 83.2363)" fill="#005F73"/>
<rect width="4.99986" height="4.99986" transform="matrix(-0.965926 0.258819 0.258819 0.965926 57.4407 77.4595)" fill="#005F73"/>
<rect width="4.99986" height="4.99986" transform="matrix(-0.965926 0.258819 0.258819 0.965926 63.5643 80.9949)" fill="#005F73"/>
<rect width="4.99986" height="4.99986" transform="matrix(-0.965926 0.258819 0.258819 0.965926 69.6879 84.5303)" fill="#005F73"/>
<rect width="4.99986" height="4.99986" transform="matrix(-0.965926 0.258819 0.258819 0.965926 75.8115 88.0658)" fill="#005F73"/>
<rect width="4.99986" height="4.99986" transform="matrix(-0.965926 0.258819 0.258819 0.965926 58.0414 41.0649)" fill="white"/>
</svg>
